<mxfile host="app.diagrams.net" modified="2024-02-28T11:07:09.599Z" agent="Mozilla/5.0 (Windows NT 10.0; Win64; x64; rv:123.0) Gecko/20100101 Firefox/123.0" etag="ZOPiEEYTGEdbRFIZ1xqP" version="23.1.7" type="device">
  <diagram name="Page-1" id="Hc-l4G0vg6NqDV3RCBHR">
    <mxGraphModel dx="1687" dy="878" grid="0" gridSize="10" guides="1" tooltips="1" connect="1" arrows="1" fold="1" page="1" pageScale="1" pageWidth="827" pageHeight="1169" math="0" shadow="0">
      <root>
        <mxCell id="0" />
        <mxCell id="1" parent="0" />
        <mxCell id="jibZWjlyEFQynynRNVv--58" value="" style="rounded=1;whiteSpace=wrap;html=1;arcSize=8;fillColor=#fff2cc;strokeColor=#d6b656;align=center;imageVerticalAlign=top;imageWidth=24;" parent="1" vertex="1">
          <mxGeometry x="32.5" y="340" width="310" height="170" as="geometry" />
        </mxCell>
        <mxCell id="jibZWjlyEFQynynRNVv--22" value="" style="image;html=1;image=img/lib/clip_art/computers/Laptop_128x128.png" parent="1" vertex="1">
          <mxGeometry x="33" y="401" width="100" height="86" as="geometry" />
        </mxCell>
        <mxCell id="jibZWjlyEFQynynRNVv--32" value="" style="image;html=1;image=img/lib/clip_art/networking/Router_Icon_128x128.png" parent="1" vertex="1">
          <mxGeometry x="287" y="410" width="90" height="50" as="geometry" />
        </mxCell>
        <mxCell id="jibZWjlyEFQynynRNVv--17" value="Linux" style="rounded=1;whiteSpace=wrap;html=1;arcSize=8;fillColor=#d5e8d4;strokeColor=#82b366;align=left;verticalAlign=bottom;fontStyle=1;fontColor=#688F52;" parent="1" vertex="1">
          <mxGeometry x="517.48" y="610" width="120" height="200" as="geometry" />
        </mxCell>
        <mxCell id="jibZWjlyEFQynynRNVv--27" value="" style="image;html=1;image=img/lib/clip_art/computers/Server_Rack_128x128.png" parent="1" vertex="1">
          <mxGeometry x="416.48" y="669" width="60" height="67" as="geometry" />
        </mxCell>
        <mxCell id="jibZWjlyEFQynynRNVv--21" value="&lt;div align=&quot;right&quot;&gt;&lt;font style=&quot;font-size: 10px;&quot; face=&quot;Helvetica&quot;&gt;&lt;b&gt;Serveur&lt;/b&gt;&lt;/font&gt;&lt;/div&gt;&lt;div align=&quot;right&quot;&gt;&lt;font style=&quot;font-size: 10px;&quot; face=&quot;Helvetica&quot;&gt;IP &lt;/font&gt;8.8.8.8&lt;/div&gt;&lt;div align=&quot;right&quot;&gt;&lt;font style=&quot;font-size: 10px;&quot; face=&quot;Helvetica&quot;&gt;(public)&lt;/font&gt;&lt;font face=&quot;72IcwpHI2TJ94Vqt0YGD&quot;&gt;&lt;br&gt;&lt;/font&gt;&lt;/div&gt;" style="text;html=1;align=right;verticalAlign=middle;whiteSpace=wrap;rounded=0;" parent="1" vertex="1">
          <mxGeometry x="570" y="597" width="69.48" height="38" as="geometry" />
        </mxCell>
        <mxCell id="jibZWjlyEFQynynRNVv--39" value="&lt;div align=&quot;center&quot;&gt;&lt;font face=&quot;Helvetica&quot;&gt;&lt;font style=&quot;font-size: 10px;&quot;&gt;web serveur&lt;/font&gt;&lt;/font&gt;&lt;/div&gt;&lt;div align=&quot;center&quot;&gt;&lt;font face=&quot;Helvetica&quot;&gt;&lt;font style=&quot;font-size: 10px;&quot;&gt;(Nginx)&lt;br&gt;&lt;/font&gt;&lt;/font&gt;&lt;/div&gt;" style="rounded=1;whiteSpace=wrap;html=1;fillColor=#e1d5e7;strokeColor=#9673a6;align=center;" parent="1" vertex="1">
          <mxGeometry x="527.4799999999999" y="646" width="40" height="60" as="geometry" />
        </mxCell>
        <mxCell id="jibZWjlyEFQynynRNVv--42" value="" style="endArrow=blockThin;html=1;rounded=0;exitX=1;exitY=0.25;exitDx=0;exitDy=0;strokeWidth=1;endFill=1;targetPerimeterSpacing=-1;sourcePerimeterSpacing=4;endWidth=4.111627906976745;endSize=3;jumpStyle=sharp;shadow=0;jumpSize=0;startSize=3;entryX=0;entryY=0.25;entryDx=0;entryDy=0;" parent="1" source="jibZWjlyEFQynynRNVv--39" target="jibZWjlyEFQynynRNVv--48" edge="1">
          <mxGeometry width="50" height="50" relative="1" as="geometry">
            <mxPoint x="677.4799999999999" y="656" as="sourcePoint" />
            <mxPoint x="587.4799999999999" y="656" as="targetPoint" />
          </mxGeometry>
        </mxCell>
        <mxCell id="jibZWjlyEFQynynRNVv--43" value="" style="endArrow=blockThin;html=1;rounded=0;exitX=0;exitY=0.75;exitDx=0;exitDy=0;strokeWidth=1;endFill=1;targetPerimeterSpacing=-1;sourcePerimeterSpacing=4;endWidth=4.111627906976745;endSize=3;jumpStyle=sharp;shadow=0;jumpSize=0;startSize=3;entryX=1;entryY=0.75;entryDx=0;entryDy=0;" parent="1" source="jibZWjlyEFQynynRNVv--48" target="jibZWjlyEFQynynRNVv--39" edge="1">
          <mxGeometry width="50" height="50" relative="1" as="geometry">
            <mxPoint x="588.7299999999999" y="682.25" as="sourcePoint" />
            <mxPoint x="597.4799999999999" y="666" as="targetPoint" />
          </mxGeometry>
        </mxCell>
        <mxCell id="jibZWjlyEFQynynRNVv--46" value="" style="endArrow=blockThin;html=1;rounded=0;exitX=0.25;exitY=1;exitDx=0;exitDy=0;strokeWidth=1;endFill=1;targetPerimeterSpacing=-1;sourcePerimeterSpacing=4;endWidth=4.111627906976745;endSize=3;jumpStyle=sharp;shadow=0;jumpSize=0;startSize=3;entryX=0.25;entryY=0;entryDx=0;entryDy=0;" parent="1" source="jibZWjlyEFQynynRNVv--39" target="jibZWjlyEFQynynRNVv--50" edge="1">
          <mxGeometry width="50" height="50" relative="1" as="geometry">
            <mxPoint x="574.4799999999999" y="678" as="sourcePoint" />
            <mxPoint x="533.38" y="723" as="targetPoint" />
          </mxGeometry>
        </mxCell>
        <mxCell id="jibZWjlyEFQynynRNVv--47" value="" style="endArrow=blockThin;html=1;rounded=0;exitX=0.75;exitY=0;exitDx=0;exitDy=0;strokeWidth=1;endFill=1;targetPerimeterSpacing=-1;sourcePerimeterSpacing=4;endWidth=4.111627906976745;endSize=3;jumpStyle=sharp;shadow=0;jumpSize=0;startSize=3;entryX=0.75;entryY=1;entryDx=0;entryDy=0;" parent="1" source="jibZWjlyEFQynynRNVv--50" target="jibZWjlyEFQynynRNVv--39" edge="1">
          <mxGeometry width="50" height="50" relative="1" as="geometry">
            <mxPoint x="553.38" y="723" as="sourcePoint" />
            <mxPoint x="544.11" y="713" as="targetPoint" />
          </mxGeometry>
        </mxCell>
        <mxCell id="jibZWjlyEFQynynRNVv--48" value="&lt;b&gt;&lt;font style=&quot;font-size: 8px;&quot;&gt;APP SERVER&lt;br&gt;&lt;/font&gt;&lt;/b&gt;" style="rounded=1;whiteSpace=wrap;html=1;fillColor=#e1d5e7;strokeColor=#9673a6;align=center;" parent="1" vertex="1">
          <mxGeometry x="587.4799999999999" y="646" width="40" height="60" as="geometry" />
        </mxCell>
        <mxCell id="jibZWjlyEFQynynRNVv--50" value="&lt;font style=&quot;font-size: 10px;&quot;&gt;code base&lt;br&gt;&lt;/font&gt;" style="rounded=1;whiteSpace=wrap;html=1;fillColor=#e1d5e7;strokeColor=#9673a6;align=center;glass=0;" parent="1" vertex="1">
          <mxGeometry x="527.4799999999999" y="728" width="40" height="60" as="geometry" />
        </mxCell>
        <mxCell id="jibZWjlyEFQynynRNVv--57" value="&lt;font style=&quot;font-size: 10px;&quot;&gt;&lt;font face=&quot;Helvetica&quot;&gt;data&lt;br&gt;base&lt;br&gt;MySQL&lt;br&gt;&lt;/font&gt;&lt;br&gt;&lt;/font&gt;" style="shape=cylinder3;whiteSpace=wrap;html=1;boundedLbl=1;backgroundOutline=1;size=7.600000000000023;fillColor=#e1d5e7;strokeColor=#9673a6;" parent="1" vertex="1">
          <mxGeometry x="587.4799999999999" y="718" width="40" height="70" as="geometry" />
        </mxCell>
        <mxCell id="jibZWjlyEFQynynRNVv--44" value="" style="endArrow=blockThin;html=1;rounded=0;exitX=0.25;exitY=1;exitDx=0;exitDy=0;strokeWidth=1;endFill=1;targetPerimeterSpacing=-1;sourcePerimeterSpacing=4;endWidth=4.111627906976745;endSize=3;jumpStyle=sharp;shadow=0;jumpSize=0;startSize=3;entryX=0.25;entryY=0.167;entryDx=0;entryDy=0;entryPerimeter=0;" parent="1" source="jibZWjlyEFQynynRNVv--48" target="jibZWjlyEFQynynRNVv--57" edge="1">
          <mxGeometry width="50" height="50" relative="1" as="geometry">
            <mxPoint x="598.7299999999999" y="704" as="sourcePoint" />
            <mxPoint x="597.4799999999999" y="724" as="targetPoint" />
          </mxGeometry>
        </mxCell>
        <mxCell id="jibZWjlyEFQynynRNVv--45" value="" style="endArrow=blockThin;html=1;rounded=0;strokeWidth=1;endFill=1;targetPerimeterSpacing=-1;sourcePerimeterSpacing=4;endWidth=4.111627906976745;endSize=3;jumpStyle=sharp;shadow=0;jumpSize=0;startSize=3;entryX=0.75;entryY=1;entryDx=0;entryDy=0;exitX=0.75;exitY=0.167;exitDx=0;exitDy=0;exitPerimeter=0;" parent="1" source="jibZWjlyEFQynynRNVv--57" target="jibZWjlyEFQynynRNVv--48" edge="1">
          <mxGeometry width="50" height="50" relative="1" as="geometry">
            <mxPoint x="617.4799999999999" y="724" as="sourcePoint" />
            <mxPoint x="618.7299999999999" y="704" as="targetPoint" />
          </mxGeometry>
        </mxCell>
        <mxCell id="jibZWjlyEFQynynRNVv--59" value="&lt;div align=&quot;left&quot;&gt;&lt;font style=&quot;font-size: 10px;&quot; face=&quot;Helvetica&quot;&gt;client&lt;/font&gt;&lt;/div&gt;&lt;div align=&quot;left&quot;&gt;&lt;font style=&quot;font-size: 10px;&quot; face=&quot;Helvetica&quot;&gt;IP 172.16.x.1 (private)&lt;/font&gt;&lt;font face=&quot;72IcwpHI2TJ94Vqt0YGD&quot;&gt;&lt;br&gt;&lt;/font&gt;&lt;/div&gt;" style="text;html=1;align=center;verticalAlign=middle;whiteSpace=wrap;rounded=0;" parent="1" vertex="1">
          <mxGeometry x="30" y="475" width="120" height="40" as="geometry" />
        </mxCell>
        <mxCell id="jibZWjlyEFQynynRNVv--62" value="&lt;b&gt;INTERNET&lt;/b&gt;" style="ellipse;shape=cloud;whiteSpace=wrap;html=1;fillColor=#dae8fc;strokeColor=#6c8ebf;shadow=1;points=[[0.07,0.4,0,0,0],[0.13,0.77,0,0,0],[0.16,0.55,0,0,0],[0.25,0.25,0,0,0],[0.31,0.8,0,0,0],[0.4,0.1,0,0,0],[0.55,0.95,0,0,0],[0.625,0.2,0,0,0],[0.8,0.8,0,0,0],[0.875,0.5,0,0,0],[0.88,0.25,0,0,0],[0.96,0.7,0,0,0]];" parent="1" vertex="1">
          <mxGeometry x="553" y="370" width="180" height="110" as="geometry" />
        </mxCell>
        <mxCell id="jibZWjlyEFQynynRNVv--63" value="" style="shape=trapezoid;perimeter=trapezoidPerimeter;whiteSpace=wrap;html=1;fixedSize=1;rotation=-90;size=84.74000000000001;fillColor=#717A70;strokeColor=#82b366;gradientColor=#D5E8D4;strokeWidth=0;" parent="1" vertex="1">
          <mxGeometry x="395.26" y="679.19" width="186.37" height="57.1" as="geometry" />
        </mxCell>
        <mxCell id="jibZWjlyEFQynynRNVv--64" value="&lt;b&gt;LAN&lt;/b&gt;" style="text;html=1;align=center;verticalAlign=middle;whiteSpace=wrap;rounded=0;fontColor=#CC6600;" parent="1" vertex="1">
          <mxGeometry x="30" y="340" width="40" height="20" as="geometry" />
        </mxCell>
        <mxCell id="jibZWjlyEFQynynRNVv--68" value="" style="image;html=1;image=img/lib/clip_art/computers/Printer_128x128.png" parent="1" vertex="1">
          <mxGeometry x="203" y="340" width="50" height="45" as="geometry" />
        </mxCell>
        <mxCell id="jibZWjlyEFQynynRNVv--69" value="" style="image;html=1;image=img/lib/clip_art/telecommunication/iPhone_128x128.png" parent="1" vertex="1">
          <mxGeometry x="227" y="460" width="20" height="60" as="geometry" />
        </mxCell>
        <mxCell id="jibZWjlyEFQynynRNVv--70" value="" style="endArrow=blockThin;html=1;rounded=0;strokeWidth=1;endFill=1;targetPerimeterSpacing=-1;sourcePerimeterSpacing=4;endWidth=4.111627906976745;endSize=3;jumpStyle=sharp;shadow=0;jumpSize=0;startSize=3;entryX=1;entryY=0.75;entryDx=0;entryDy=0;exitX=0.5;exitY=0;exitDx=0;exitDy=0;" parent="1" source="jibZWjlyEFQynynRNVv--32" target="jibZWjlyEFQynynRNVv--68" edge="1">
          <mxGeometry width="50" height="50" relative="1" as="geometry">
            <mxPoint x="120" y="433" as="sourcePoint" />
            <mxPoint x="229" y="433" as="targetPoint" />
          </mxGeometry>
        </mxCell>
        <mxCell id="jibZWjlyEFQynynRNVv--71" value="" style="endArrow=blockThin;html=1;rounded=0;strokeWidth=1;endFill=1;targetPerimeterSpacing=-1;sourcePerimeterSpacing=4;endWidth=4.111627906976745;endSize=3;jumpStyle=sharp;shadow=0;jumpSize=0;startSize=3;exitX=1;exitY=1;exitDx=0;exitDy=0;entryX=0.25;entryY=0;entryDx=0;entryDy=0;" parent="1" source="jibZWjlyEFQynynRNVv--68" target="jibZWjlyEFQynynRNVv--32" edge="1">
          <mxGeometry width="50" height="50" relative="1" as="geometry">
            <mxPoint x="257" y="420" as="sourcePoint" />
            <mxPoint x="340" y="550" as="targetPoint" />
          </mxGeometry>
        </mxCell>
        <mxCell id="jibZWjlyEFQynynRNVv--72" value="" style="endArrow=blockThin;html=1;rounded=0;strokeWidth=1;endFill=1;targetPerimeterSpacing=-1;sourcePerimeterSpacing=4;endWidth=4.111627906976745;endSize=3;jumpStyle=sharp;shadow=0;jumpSize=0;startSize=3;entryX=1;entryY=0.25;entryDx=0;entryDy=0;exitX=0;exitY=1;exitDx=0;exitDy=0;" parent="1" source="jibZWjlyEFQynynRNVv--32" target="jibZWjlyEFQynynRNVv--69" edge="1">
          <mxGeometry width="50" height="50" relative="1" as="geometry">
            <mxPoint x="267" y="430" as="sourcePoint" />
            <mxPoint x="210" y="394" as="targetPoint" />
          </mxGeometry>
        </mxCell>
        <mxCell id="jibZWjlyEFQynynRNVv--73" value="" style="endArrow=blockThin;html=1;rounded=0;strokeWidth=1;endFill=1;targetPerimeterSpacing=-1;sourcePerimeterSpacing=4;endWidth=4.111627906976745;endSize=3;jumpStyle=sharp;shadow=0;jumpSize=0;startSize=3;entryX=0.25;entryY=1;entryDx=0;entryDy=0;exitX=0.992;exitY=0.38;exitDx=0;exitDy=0;exitPerimeter=0;" parent="1" source="jibZWjlyEFQynynRNVv--69" target="jibZWjlyEFQynynRNVv--32" edge="1">
          <mxGeometry width="50" height="50" relative="1" as="geometry">
            <mxPoint x="277" y="440" as="sourcePoint" />
            <mxPoint x="220" y="404" as="targetPoint" />
          </mxGeometry>
        </mxCell>
        <mxCell id="jibZWjlyEFQynynRNVv--75" value="&lt;div align=&quot;left&quot;&gt;&lt;font style=&quot;font-size: 8px;&quot; face=&quot;Helvetica&quot;&gt;IP 172.16.x.2 (private)&lt;/font&gt;&lt;font size=&quot;3&quot; face=&quot;72IcwpHI2TJ94Vqt0YGD&quot;&gt;&lt;br&gt;&lt;/font&gt;&lt;/div&gt;" style="text;html=1;align=center;verticalAlign=middle;whiteSpace=wrap;rounded=0;" parent="1" vertex="1">
          <mxGeometry x="113" y="340" width="120" height="18.74" as="geometry" />
        </mxCell>
        <mxCell id="jibZWjlyEFQynynRNVv--76" value="&lt;div align=&quot;left&quot;&gt;&lt;font style=&quot;font-size: 8px;&quot; face=&quot;Helvetica&quot;&gt;IP 172.16.x.3(private)&lt;/font&gt;&lt;font size=&quot;3&quot; face=&quot;72IcwpHI2TJ94Vqt0YGD&quot;&gt;&lt;br&gt;&lt;/font&gt;&lt;/div&gt;" style="text;html=1;align=center;verticalAlign=middle;whiteSpace=wrap;rounded=0;" parent="1" vertex="1">
          <mxGeometry x="229" y="491.26" width="120" height="18.74" as="geometry" />
        </mxCell>
        <mxCell id="jibZWjlyEFQynynRNVv--77" value="&lt;font style=&quot;font-size: 10px;&quot; face=&quot;Helvetica&quot;&gt;Request&lt;/font&gt;&lt;font face=&quot;zoXYefRdcyB84MneROfM&quot;&gt;&lt;code&gt; www.foobar.com&lt;/code&gt;&lt;/font&gt;" style="text;html=1;align=center;verticalAlign=middle;whiteSpace=wrap;rounded=0;fontColor=#ff0000;" parent="1" vertex="1">
          <mxGeometry x="107" y="407" width="185" height="18.74" as="geometry" />
        </mxCell>
        <mxCell id="jibZWjlyEFQynynRNVv--78" value="" style="group" parent="1" vertex="1" connectable="0">
          <mxGeometry x="645.24" y="130" width="70.48000000000002" height="85" as="geometry" />
        </mxCell>
        <mxCell id="jibZWjlyEFQynynRNVv--65" value="" style="image;html=1;image=img/lib/clip_art/computers/Server_Rack_128x128.png" parent="jibZWjlyEFQynynRNVv--78" vertex="1">
          <mxGeometry x="10.480000000000018" y="18" width="60" height="67" as="geometry" />
        </mxCell>
        <mxCell id="jibZWjlyEFQynynRNVv--66" value="&lt;div align=&quot;right&quot;&gt;&lt;font style=&quot;font-size: 10px;&quot; face=&quot;Helvetica&quot;&gt;&lt;b&gt;Serveur DNS&lt;br&gt;&lt;/b&gt;&lt;/font&gt;&lt;/div&gt;&lt;font style=&quot;font-size: 10px;&quot;&gt;&lt;b&gt;&lt;/b&gt;&lt;/font&gt;" style="text;html=1;align=right;verticalAlign=middle;whiteSpace=wrap;rounded=0;" parent="jibZWjlyEFQynynRNVv--78" vertex="1">
          <mxGeometry width="70" height="20" as="geometry" />
        </mxCell>
        <mxCell id="jibZWjlyEFQynynRNVv--82" value="&lt;div align=&quot;left&quot;&gt;&lt;font style=&quot;font-size: 10px;&quot; face=&quot;Helvetica&quot;&gt;&lt;b&gt;Router&lt;/b&gt;&lt;/font&gt;&lt;/div&gt;&lt;div align=&quot;left&quot;&gt;&lt;font style=&quot;font-size: 10px;&quot; face=&quot;Helvetica&quot;&gt;IP &lt;/font&gt;&lt;font style=&quot;font-size: 10px;&quot;&gt;203.0.113.45&lt;/font&gt;&lt;/div&gt;&lt;div align=&quot;left&quot;&gt;&lt;font style=&quot;font-size: 10px;&quot; face=&quot;Helvetica&quot;&gt;(public)&lt;/font&gt;&lt;font face=&quot;72IcwpHI2TJ94Vqt0YGD&quot;&gt;&lt;br&gt;&lt;/font&gt;&lt;/div&gt;" style="text;html=1;align=left;verticalAlign=middle;whiteSpace=wrap;rounded=0;" parent="1" vertex="1">
          <mxGeometry x="311.51" y="442.37" width="86.49" height="38" as="geometry" />
        </mxCell>
        <mxCell id="jibZWjlyEFQynynRNVv--86" value="&lt;font style=&quot;font-size: 10px;&quot;&gt;&lt;font face=&quot;Helvetica&quot;&gt;Response 8.8.8.8&lt;/font&gt;&lt;font&gt;&lt;br&gt;&lt;/font&gt;&lt;/font&gt;" style="text;html=1;align=center;verticalAlign=middle;whiteSpace=wrap;rounded=0;fontColor=#006600;" parent="1" vertex="1">
          <mxGeometry x="80" y="420.13" width="205" height="18.74" as="geometry" />
        </mxCell>
        <mxCell id="jibZWjlyEFQynynRNVv--60" value="" style="endArrow=blockThin;html=1;rounded=0;strokeWidth=1;endFill=1;targetPerimeterSpacing=-1;sourcePerimeterSpacing=4;endWidth=4.111627906976745;endSize=3;jumpStyle=sharp;shadow=0;jumpSize=0;startSize=3;entryX=0;entryY=0.25;entryDx=0;entryDy=0;exitX=0.089;exitY=0.153;exitDx=0;exitDy=0;fillColor=#e51400;strokeColor=#B20000;exitPerimeter=0;" parent="1" source="jibZWjlyEFQynynRNVv--86" target="jibZWjlyEFQynynRNVv--32" edge="1">
          <mxGeometry width="50" height="50" relative="1" as="geometry">
            <mxPoint x="106.08000000000004" y="424.76" as="sourcePoint" />
            <mxPoint x="163.51" y="424.0000000000001" as="targetPoint" />
          </mxGeometry>
        </mxCell>
        <mxCell id="jibZWjlyEFQynynRNVv--61" value="" style="endArrow=blockThin;html=1;rounded=0;strokeWidth=1;endFill=1;targetPerimeterSpacing=-1;sourcePerimeterSpacing=4;endWidth=4.111627906976745;endSize=3;jumpStyle=sharp;shadow=0;jumpSize=0;startSize=3;exitX=-0.014;exitY=0.593;exitDx=0;exitDy=0;exitPerimeter=0;entryX=1;entryY=0.75;entryDx=0;entryDy=0;fillColor=#008a00;strokeColor=#005700;" parent="1" target="jibZWjlyEFQynynRNVv--127" edge="1">
          <mxGeometry width="50" height="50" relative="1" as="geometry">
            <mxPoint x="289.20914000000016" y="426.6300000000001" as="sourcePoint" />
            <mxPoint x="110" y="427.48000000000013" as="targetPoint" />
          </mxGeometry>
        </mxCell>
        <mxCell id="jibZWjlyEFQynynRNVv--92" value="" style="group" parent="1" vertex="1" connectable="0">
          <mxGeometry x="363" y="406" width="210" height="31.87" as="geometry" />
        </mxCell>
        <mxCell id="jibZWjlyEFQynynRNVv--88" value="&lt;font style=&quot;font-size: 10px;&quot; face=&quot;Helvetica&quot;&gt;Request&lt;/font&gt;&lt;font face=&quot;zoXYefRdcyB84MneROfM&quot;&gt;&lt;code&gt; www.foobar.com&lt;/code&gt;&lt;/font&gt;" style="text;html=1;align=center;verticalAlign=middle;whiteSpace=wrap;rounded=0;fontColor=#ff0000;" parent="jibZWjlyEFQynynRNVv--92" vertex="1">
          <mxGeometry width="210" height="18.739999999999995" as="geometry" />
        </mxCell>
        <mxCell id="jibZWjlyEFQynynRNVv--89" value="&lt;font style=&quot;font-size: 10px;&quot;&gt;&lt;font face=&quot;Helvetica&quot;&gt;Response 8.8.8.8&lt;/font&gt;&lt;font&gt;&lt;br&gt;&lt;/font&gt;&lt;/font&gt;" style="text;html=1;align=center;verticalAlign=middle;whiteSpace=wrap;rounded=0;fontColor=#006600;" parent="jibZWjlyEFQynynRNVv--92" vertex="1">
          <mxGeometry x="3.4054054054054053" y="13.129999999999994" width="198.64864864864862" height="18.739999999999995" as="geometry" />
        </mxCell>
        <mxCell id="jibZWjlyEFQynynRNVv--90" value="" style="endArrow=blockThin;html=1;rounded=0;strokeWidth=1;endFill=1;targetPerimeterSpacing=-1;sourcePerimeterSpacing=4;endWidth=4.111627906976745;endSize=3;jumpStyle=sharp;shadow=0;jumpSize=0;startSize=3;entryX=0;entryY=0.25;entryDx=0;entryDy=0;exitX=1;exitY=0.25;exitDx=0;exitDy=0;fillColor=#e51400;strokeColor=#B20000;" parent="jibZWjlyEFQynynRNVv--92" edge="1">
          <mxGeometry width="50" height="50" relative="1" as="geometry">
            <mxPoint x="3.4054054054054053" y="15.999999999999998" as="sourcePoint" />
            <mxPoint x="207.7297297297297" y="14.999999999999998" as="targetPoint" />
          </mxGeometry>
        </mxCell>
        <mxCell id="jibZWjlyEFQynynRNVv--91" value="" style="endArrow=blockThin;html=1;rounded=0;strokeWidth=1;endFill=1;targetPerimeterSpacing=-1;sourcePerimeterSpacing=4;endWidth=4.111627906976745;endSize=3;jumpStyle=sharp;shadow=0;jumpSize=0;startSize=3;exitX=-0.014;exitY=0.593;exitDx=0;exitDy=0;exitPerimeter=0;entryX=1;entryY=0.5;entryDx=0;entryDy=0;fillColor=#008a00;strokeColor=#005700;" parent="jibZWjlyEFQynynRNVv--92" edge="1">
          <mxGeometry width="50" height="50" relative="1" as="geometry">
            <mxPoint x="206.83199675675692" y="19.630000000000106" as="sourcePoint" />
            <mxPoint x="3.4054054054054053" y="20.48000000000013" as="targetPoint" />
          </mxGeometry>
        </mxCell>
        <mxCell id="jibZWjlyEFQynynRNVv--102" value="" style="group;rotation=-75;" parent="1" vertex="1" connectable="0">
          <mxGeometry x="563" y="280" width="181" height="31.87" as="geometry" />
        </mxCell>
        <mxCell id="jibZWjlyEFQynynRNVv--103" value="&lt;font style=&quot;font-size: 10px;&quot; face=&quot;Helvetica&quot;&gt;Request&lt;/font&gt;&lt;font face=&quot;zoXYefRdcyB84MneROfM&quot;&gt;&lt;code&gt; www.foobar.com&lt;/code&gt;&lt;/font&gt;" style="text;html=1;align=center;verticalAlign=middle;whiteSpace=wrap;rounded=0;fontColor=#ff0000;rotation=-75;" parent="jibZWjlyEFQynynRNVv--102" vertex="1">
          <mxGeometry x="-6" y="5" width="181" height="18.739999999999995" as="geometry" />
        </mxCell>
        <mxCell id="jibZWjlyEFQynynRNVv--104" value="&lt;font style=&quot;font-size: 10px;&quot;&gt;&lt;font face=&quot;Helvetica&quot;&gt;Response 8.8.8.8&lt;/font&gt;&lt;font&gt;&lt;br&gt;&lt;/font&gt;&lt;/font&gt;" style="text;html=1;align=center;verticalAlign=middle;whiteSpace=wrap;rounded=0;fontColor=#006600;rotation=-75;" parent="jibZWjlyEFQynynRNVv--102" vertex="1">
          <mxGeometry x="11" y="10" width="171.2162162162162" height="18.739999999999995" as="geometry" />
        </mxCell>
        <mxCell id="jibZWjlyEFQynynRNVv--105" value="" style="endArrow=blockThin;html=1;rounded=0;strokeWidth=1;endFill=1;targetPerimeterSpacing=-1;sourcePerimeterSpacing=4;endWidth=4.111627906976745;endSize=3;jumpStyle=sharp;shadow=0;jumpSize=0;startSize=3;entryX=0;entryY=0.25;entryDx=0;entryDy=0;exitX=1;exitY=0.25;exitDx=0;exitDy=0;fillColor=#e51400;strokeColor=#B20000;" parent="jibZWjlyEFQynynRNVv--102" edge="1">
          <mxGeometry width="50" height="50" relative="1" as="geometry">
            <mxPoint x="68" y="101" as="sourcePoint" />
            <mxPoint x="113" y="-70" as="targetPoint" />
          </mxGeometry>
        </mxCell>
        <mxCell id="jibZWjlyEFQynynRNVv--106" value="" style="endArrow=blockThin;html=1;rounded=0;strokeWidth=1;endFill=1;targetPerimeterSpacing=-1;sourcePerimeterSpacing=4;endWidth=4.111627906976745;endSize=3;jumpStyle=sharp;shadow=0;jumpSize=0;startSize=3;exitX=-0.014;exitY=0.593;exitDx=0;exitDy=0;exitPerimeter=0;entryX=1;entryY=0.5;entryDx=0;entryDy=0;fillColor=#008a00;strokeColor=#005700;" parent="jibZWjlyEFQynynRNVv--102" edge="1">
          <mxGeometry width="50" height="50" relative="1" as="geometry">
            <mxPoint x="117" y="-68" as="sourcePoint" />
            <mxPoint x="72" y="102" as="targetPoint" />
          </mxGeometry>
        </mxCell>
        <mxCell id="jibZWjlyEFQynynRNVv--108" value="" style="group" parent="1" vertex="1" connectable="0">
          <mxGeometry x="96" y="430" width="210" height="31.87" as="geometry" />
        </mxCell>
        <mxCell id="jibZWjlyEFQynynRNVv--109" value="&lt;font color=&quot;#cc00cc&quot; style=&quot;font-size: 10px;&quot; face=&quot;Helvetica&quot;&gt;Request&lt;/font&gt;&lt;font color=&quot;#cc00cc&quot; face=&quot;zoXYefRdcyB84MneROfM&quot;&gt;&lt;code&gt; to 8.8.8.8&lt;br&gt;&lt;/code&gt;&lt;/font&gt;" style="text;html=1;align=center;verticalAlign=middle;whiteSpace=wrap;rounded=0;fontColor=#ff0000;" parent="jibZWjlyEFQynynRNVv--108" vertex="1">
          <mxGeometry width="210" height="18.739999999999995" as="geometry" />
        </mxCell>
        <mxCell id="jibZWjlyEFQynynRNVv--110" value="&lt;font color=&quot;#0066cc&quot; style=&quot;font-size: 10px;&quot;&gt;&lt;font face=&quot;Helvetica&quot;&gt;Example response : HTML&lt;br&gt;&lt;/font&gt;&lt;/font&gt;" style="text;html=1;align=center;verticalAlign=middle;whiteSpace=wrap;rounded=0;fontColor=#006600;" parent="jibZWjlyEFQynynRNVv--108" vertex="1">
          <mxGeometry x="3.4054054054054053" y="13.129999999999994" width="198.64864864864862" height="18.739999999999995" as="geometry" />
        </mxCell>
        <mxCell id="jibZWjlyEFQynynRNVv--111" value="" style="endArrow=blockThin;html=1;rounded=0;strokeWidth=1;endFill=1;targetPerimeterSpacing=-1;sourcePerimeterSpacing=4;endWidth=4.111627906976745;endSize=3;jumpStyle=sharp;shadow=0;jumpSize=0;startSize=3;entryX=0;entryY=0.25;entryDx=0;entryDy=0;exitX=1;exitY=0.25;exitDx=0;exitDy=0;fillColor=#e51400;strokeColor=#CC00CC;" parent="jibZWjlyEFQynynRNVv--108" edge="1">
          <mxGeometry width="50" height="50" relative="1" as="geometry">
            <mxPoint x="3.4054054054054053" y="15.999999999999998" as="sourcePoint" />
            <mxPoint x="207.7297297297297" y="14.999999999999998" as="targetPoint" />
          </mxGeometry>
        </mxCell>
        <mxCell id="jibZWjlyEFQynynRNVv--112" value="" style="endArrow=blockThin;html=1;rounded=0;strokeWidth=1;endFill=1;targetPerimeterSpacing=-1;sourcePerimeterSpacing=4;endWidth=4.111627906976745;endSize=3;jumpStyle=sharp;shadow=0;jumpSize=0;startSize=3;exitX=-0.014;exitY=0.593;exitDx=0;exitDy=0;exitPerimeter=0;entryX=1;entryY=0.5;entryDx=0;entryDy=0;fillColor=#0050ef;strokeColor=#001DBC;" parent="jibZWjlyEFQynynRNVv--108" edge="1">
          <mxGeometry width="50" height="50" relative="1" as="geometry">
            <mxPoint x="206.83199675675692" y="19.630000000000106" as="sourcePoint" />
            <mxPoint x="3.4054054054054053" y="20.48000000000013" as="targetPoint" />
          </mxGeometry>
        </mxCell>
        <mxCell id="jibZWjlyEFQynynRNVv--133" value="&lt;b&gt;3&lt;/b&gt;" style="ellipse;whiteSpace=wrap;html=1;aspect=fixed;fontColor=#ffffff;fillColor=#CC00CC;strokeColor=#B20000;strokeWidth=0;" parent="jibZWjlyEFQynynRNVv--108" vertex="1">
          <mxGeometry x="-6" y="7.1200000000000045" width="12.5" height="12.5" as="geometry" />
        </mxCell>
        <mxCell id="jibZWjlyEFQynynRNVv--113" value="" style="group" parent="1" vertex="1" connectable="0">
          <mxGeometry x="365" y="429" width="210" height="31.87" as="geometry" />
        </mxCell>
        <mxCell id="jibZWjlyEFQynynRNVv--114" value="&lt;font color=&quot;#cc00cc&quot; style=&quot;font-size: 10px;&quot; face=&quot;Helvetica&quot;&gt;Request&lt;/font&gt;&lt;font color=&quot;#cc00cc&quot; face=&quot;zoXYefRdcyB84MneROfM&quot;&gt;&lt;code&gt; to 8.8.8.8&lt;br&gt;&lt;/code&gt;&lt;/font&gt;" style="text;html=1;align=center;verticalAlign=middle;whiteSpace=wrap;rounded=0;fontColor=#ff0000;" parent="jibZWjlyEFQynynRNVv--113" vertex="1">
          <mxGeometry width="210" height="18.739999999999995" as="geometry" />
        </mxCell>
        <mxCell id="jibZWjlyEFQynynRNVv--115" value="&lt;font color=&quot;#0066cc&quot; style=&quot;font-size: 10px;&quot;&gt;&lt;font face=&quot;Helvetica&quot;&gt;Example response : HTML&lt;br&gt;&lt;/font&gt;&lt;/font&gt;" style="text;html=1;align=center;verticalAlign=middle;whiteSpace=wrap;rounded=0;fontColor=#006600;" parent="jibZWjlyEFQynynRNVv--113" vertex="1">
          <mxGeometry x="3.4054054054054053" y="13.129999999999994" width="198.64864864864862" height="18.739999999999995" as="geometry" />
        </mxCell>
        <mxCell id="jibZWjlyEFQynynRNVv--116" value="" style="endArrow=blockThin;html=1;rounded=0;strokeWidth=1;endFill=1;targetPerimeterSpacing=-1;sourcePerimeterSpacing=4;endWidth=4.111627906976745;endSize=3;jumpStyle=sharp;shadow=0;jumpSize=0;startSize=3;entryX=0;entryY=0.25;entryDx=0;entryDy=0;exitX=1;exitY=0.25;exitDx=0;exitDy=0;fillColor=#e51400;strokeColor=#CC00CC;" parent="jibZWjlyEFQynynRNVv--113" edge="1">
          <mxGeometry width="50" height="50" relative="1" as="geometry">
            <mxPoint x="3.4054054054054053" y="15.999999999999998" as="sourcePoint" />
            <mxPoint x="207.7297297297297" y="14.999999999999998" as="targetPoint" />
          </mxGeometry>
        </mxCell>
        <mxCell id="jibZWjlyEFQynynRNVv--117" value="" style="endArrow=blockThin;html=1;rounded=0;strokeWidth=1;endFill=1;targetPerimeterSpacing=-1;sourcePerimeterSpacing=4;endWidth=4.111627906976745;endSize=3;jumpStyle=sharp;shadow=0;jumpSize=0;startSize=3;exitX=-0.014;exitY=0.593;exitDx=0;exitDy=0;exitPerimeter=0;entryX=1;entryY=0.5;entryDx=0;entryDy=0;fillColor=#0050ef;strokeColor=#001DBC;" parent="jibZWjlyEFQynynRNVv--113" edge="1">
          <mxGeometry width="50" height="50" relative="1" as="geometry">
            <mxPoint x="206.83199675675692" y="19.630000000000106" as="sourcePoint" />
            <mxPoint x="3.4054054054054053" y="20.48000000000013" as="targetPoint" />
          </mxGeometry>
        </mxCell>
        <mxCell id="jibZWjlyEFQynynRNVv--124" value="&lt;font style=&quot;font-size: 36px;&quot;&gt;&lt;b&gt;Simple Web&amp;nbsp;&lt;/b&gt;&lt;/font&gt;&lt;font style=&quot;font-size: 36px;&quot;&gt;&lt;b&gt;infrastructure&lt;/b&gt;&lt;/font&gt;&lt;font style=&quot;font-size: 36px;&quot;&gt;&lt;b&gt; with a &lt;a target=&quot;_blank&quot; title=&quot;LAMP stack&quot; href=&quot;https://intranet.hbtn.io/rltoken/OtZFy7tXzJmziqfiXKT5lA&quot;&gt;LAMP stack&lt;/a&gt;.&lt;/b&gt;&lt;/font&gt;" style="text;html=1;align=center;verticalAlign=middle;whiteSpace=wrap;rounded=0;" parent="1" vertex="1">
          <mxGeometry x="140" y="80" width="467.48" height="20" as="geometry" />
        </mxCell>
        <mxCell id="jibZWjlyEFQynynRNVv--119" value="&lt;font color=&quot;#cc00cc&quot; style=&quot;font-size: 10px;&quot; face=&quot;Helvetica&quot;&gt;Request&lt;/font&gt;&lt;font color=&quot;#cc00cc&quot; face=&quot;zoXYefRdcyB84MneROfM&quot;&gt;&lt;code&gt; to 8.8.8.8&lt;br&gt;&lt;/code&gt;&lt;/font&gt;" style="text;html=1;align=center;verticalAlign=middle;whiteSpace=wrap;rounded=0;fontColor=#ff0000;rotation=-255;" parent="1" vertex="1">
          <mxGeometry x="476" y="538" width="210" height="18.739999999999995" as="geometry" />
        </mxCell>
        <mxCell id="jibZWjlyEFQynynRNVv--120" value="&lt;font color=&quot;#0066cc&quot; style=&quot;font-size: 10px;&quot;&gt;&lt;font face=&quot;Helvetica&quot;&gt;Example response : HTML&lt;br&gt;&lt;/font&gt;&lt;/font&gt;" style="text;html=1;align=center;verticalAlign=middle;whiteSpace=wrap;rounded=0;fontColor=#006600;rotation=-75;" parent="1" vertex="1">
          <mxGeometry x="465" y="532" width="198.64864864864862" height="18.739999999999995" as="geometry" />
        </mxCell>
        <mxCell id="jibZWjlyEFQynynRNVv--121" value="" style="endArrow=blockThin;html=1;rounded=0;strokeWidth=1;endFill=1;targetPerimeterSpacing=-1;sourcePerimeterSpacing=4;endWidth=4.111627906976745;endSize=3;jumpStyle=sharp;shadow=0;jumpSize=0;startSize=3;entryX=0;entryY=0.25;entryDx=0;entryDy=0;exitX=1;exitY=0.25;exitDx=0;exitDy=0;fillColor=#e51400;strokeColor=#CC00CC;" parent="1" edge="1">
          <mxGeometry width="50" height="50" relative="1" as="geometry">
            <mxPoint x="602" y="448" as="sourcePoint" />
            <mxPoint x="549" y="646" as="targetPoint" />
          </mxGeometry>
        </mxCell>
        <mxCell id="jibZWjlyEFQynynRNVv--122" value="" style="endArrow=blockThin;html=1;rounded=0;strokeWidth=1;endFill=1;targetPerimeterSpacing=-1;sourcePerimeterSpacing=4;endWidth=4.111627906976745;endSize=3;jumpStyle=sharp;shadow=0;jumpSize=0;startSize=3;exitX=-0.014;exitY=0.593;exitDx=0;exitDy=0;exitPerimeter=0;entryX=1;entryY=0.5;entryDx=0;entryDy=0;fillColor=#0050ef;strokeColor=#001DBC;" parent="1" edge="1">
          <mxGeometry width="50" height="50" relative="1" as="geometry">
            <mxPoint x="545" y="643" as="sourcePoint" />
            <mxPoint x="597" y="447" as="targetPoint" />
          </mxGeometry>
        </mxCell>
        <mxCell id="jibZWjlyEFQynynRNVv--127" value="&lt;b&gt;Browse&lt;/b&gt;r" style="text;html=1;align=center;verticalAlign=middle;whiteSpace=wrap;rounded=0;rotation=-15;fontColor=#FFFFFF;" parent="1" vertex="1">
          <mxGeometry x="41.17" y="419.16" width="50" height="20" as="geometry" />
        </mxCell>
        <mxCell id="jibZWjlyEFQynynRNVv--128" value="&lt;font style=&quot;font-size: 10px;&quot;&gt;&lt;b&gt;1&lt;/b&gt;&lt;/font&gt;" style="ellipse;whiteSpace=wrap;html=1;aspect=fixed;fontColor=#ffffff;fillColor=#e51400;strokeColor=#B20000;strokeWidth=0;" parent="1" vertex="1">
          <mxGeometry x="89" y="413" width="12.5" height="12.5" as="geometry" />
        </mxCell>
        <mxCell id="jibZWjlyEFQynynRNVv--132" value="&lt;div&gt;&lt;b&gt;2&lt;/b&gt;&lt;/div&gt;" style="ellipse;whiteSpace=wrap;html=1;aspect=fixed;fontColor=#ffffff;fillColor=#008a00;strokeColor=#005700;align=center;verticalAlign=middle;spacing=-2;strokeWidth=0;" parent="1" vertex="1">
          <mxGeometry x="677.23" y="201" width="12.5" height="12.5" as="geometry" />
        </mxCell>
        <mxCell id="jibZWjlyEFQynynRNVv--135" value="&lt;b&gt;4&lt;/b&gt;" style="ellipse;whiteSpace=wrap;html=1;aspect=fixed;fontColor=#ffffff;fillColor=#0050ef;strokeColor=#001DBC;strokeWidth=0;" parent="1" vertex="1">
          <mxGeometry x="534" y="636" width="12.5" height="12.5" as="geometry" />
        </mxCell>
      </root>
    </mxGraphModel>
  </diagram>
</mxfile>
